# xmcd
#
# Track frame offsets:
#	150
#	16398
#	38659
#	55272
#	72743
#	84695
#	100173
#	116590
#	131884
#	151976
#	168046
#
# Disc length: 2464 seconds
#
# Revision: 1
# Processed by: cddbd v1.5.2PL0 Copyright (c) Steve Scherf et al.
# Submitted via: audiograbber 1.83.01
#
DISCID=8f099e0b
DTITLE=Various Artist - CDX 045
DYEAR=1992
DGENRE=Country
TTITLE0=Alvin and The Chipmunks  - Achy Breaky Heart [with Special Guest Billy Ra
TTITLE0=y Cyrus (Edited Version]
TTITLE1=Alvin and The Chipmunks (with Special Guest Billy Ray Cyrus)  - Achy Brea
TTITLE1=ky Heart [Album Version]
TTITLE2=Travis Tritt  - Can I Trust You With My Heart
TTITLE3=The Marshall Tucker Band - Driving You Out Of My Mind
TTITLE4=Collin Raye - I Want You Bad (And That Ain't Good)
TTITLE5=Corbin/Hanner - I Will Stand By You
TTITLE6=Mac McAnally - Junk Cars
TTITLE7=John Anderson - Let Go Of The Stone
TTITLE8=Wynonna Judd - My Strongest Weakness
TTITLE9=The Rankin Family - Orangedale Whistle
TTITLE10=Deborah Allen - Rock Me (In The Cradle of Love)
EXTD=
EXTT0=
EXTT1=
EXTT2=
EXTT3=
EXTT4=
EXTT5=
EXTT6=
EXTT7=
EXTT8=
EXTT9=
EXTT10=
PLAYORDER=
